<svg width="71" height="55" viewBox="0 0 71 55" fill="none" xmlns="http://www.w3.org/2000/svg">
<rect x="36.0322" y="43.2979" width="22.234" height="27.3348" transform="rotate(-90 36.0322 43.2979)" fill="#CCBACA"/>
<rect x="36.0322" y="43.2979" width="22.234" height="27.3348" transform="rotate(-90 36.0322 43.2979)" fill="#CCBACA"/>
<rect x="36.0322" y="43.2979" width="22.234" height="27.3348" transform="rotate(-90 36.0322 43.2979)" fill="#CCBACA"/>
<rect x="36.0322" y="43.2979" width="22.234" height="27.3348" transform="rotate(-90 36.0322 43.2979)" fill="#A8D2A0"/>
<rect x="8.69742" y="55" width="22.234" height="27.3348" transform="rotate(-90 8.69742 55)" fill="#CCBACA"/>
<rect x="8.69742" y="55" width="22.234" height="27.3348" transform="rotate(-90 8.69742 55)" fill="#CCBACA"/>
<rect x="8.69742" y="55" width="22.234" height="27.3348" transform="rotate(-90 8.69742 55)" fill="#CCBACA"/>
<rect x="8.69742" y="55" width="22.234" height="27.3348" transform="rotate(-90 8.69742 55)" fill="#2B468B"/>
<rect x="43.4872" y="22.234" width="22.234" height="27.3348" transform="rotate(-90 43.4872 22.234)" fill="#CCBACA"/>
<rect x="43.4872" y="22.234" width="22.234" height="27.3348" transform="rotate(-90 43.4872 22.234)" fill="#CCBACA"/>
<rect x="43.4872" y="22.234" width="22.234" height="27.3348" transform="rotate(-90 43.4872 22.234)" fill="#CCBACA"/>
<rect x="43.4872" y="22.234" width="22.234" height="27.3348" transform="rotate(-90 43.4872 22.234)" fill="#CCBACA"/>
<rect y="22.234" width="22.234" height="27.3348" transform="rotate(-90 0 22.234)" fill="#CCBACA"/>
<rect y="22.234" width="22.234" height="27.3348" transform="rotate(-90 0 22.234)" fill="#CCBACA"/>
<rect y="22.234" width="22.234" height="27.3348" transform="rotate(-90 0 22.234)" fill="#CCBACA"/>
<rect y="22.234" width="22.234" height="27.3348" transform="rotate(-90 0 22.234)" fill="#F7D58D"/>
<rect x="36.0322" y="55" width="22.234" height="27.3348" transform="rotate(-90 36.0322 55)" fill="#CCBACA"/>
<rect x="36.0322" y="55" width="22.234" height="27.3348" transform="rotate(-90 36.0322 55)" fill="#CCBACA"/>
<rect x="36.0322" y="55" width="22.234" height="27.3348" transform="rotate(-90 36.0322 55)" fill="#CCBACA"/>
<rect x="36.0322" y="55" width="22.234" height="27.3348" transform="rotate(-90 36.0322 55)" fill="#9CBAC1"/>
<rect x="8.69742" y="43.2979" width="22.234" height="27.3348" transform="rotate(-90 8.69742 43.2979)" fill="#CCBACA"/>
<rect x="8.69742" y="43.2979" width="22.234" height="27.3348" transform="rotate(-90 8.69742 43.2979)" fill="#CCBACA"/>
<rect x="8.69742" y="43.2979" width="22.234" height="27.3348" transform="rotate(-90 8.69742 43.2979)" fill="#CCBACA"/>
<rect x="8.69742" y="43.2979" width="22.234" height="27.3348" transform="rotate(-90 8.69742 43.2979)" fill="#FA9746"/>
<rect x="22.3648" y="43.2979" width="22.234" height="27.3348" transform="rotate(-90 22.3648 43.2979)" fill="#CCBACA"/>
<rect x="22.3648" y="43.2979" width="22.234" height="27.3348" transform="rotate(-90 22.3648 43.2979)" fill="#CCBACA"/>
<rect x="22.3648" y="43.2979" width="22.234" height="27.3348" transform="rotate(-90 22.3648 43.2979)" fill="#CCBACA"/>
<rect x="22.3648" y="43.2979" width="22.234" height="27.3348" transform="rotate(-90 22.3648 43.2979)" fill="#B74C42"/>
<rect x="22.3648" y="22.234" width="22.234" height="27.3348" transform="rotate(-90 22.3648 22.234)" fill="#CCBACA"/>
<rect x="22.3648" y="22.234" width="22.234" height="27.3348" transform="rotate(-90 22.3648 22.234)" fill="#CCBACA"/>
<rect x="22.3648" y="22.234" width="22.234" height="27.3348" transform="rotate(-90 22.3648 22.234)" fill="#CCBACA"/>
<rect x="22.3648" y="22.234" width="22.234" height="27.3348" transform="rotate(-90 22.3648 22.234)" fill="#52B277"/>
<rect x="22.3648" y="22.234" width="10.5319" height="27.3348" transform="rotate(-90 22.3648 22.234)" fill="#CCBACA"/>
<rect x="22.3648" y="22.234" width="10.5319" height="27.3348" transform="rotate(-90 22.3648 22.234)" fill="#CCBACA"/>
<rect x="22.3648" y="22.234" width="10.5319" height="27.3348" transform="rotate(-90 22.3648 22.234)" fill="#CCBACA"/>
<rect x="22.3648" y="22.234" width="10.5319" height="27.3348" transform="rotate(-90 22.3648 22.234)" fill="#FCECDC"/>
</svg>
