<svg width="315" height="74" viewBox="0 0 315 74" fill="none" xmlns="http://www.w3.org/2000/svg">
<rect x="36.0322" y="56.2979" width="22.234" height="27.3348" transform="rotate(-90 36.0322 56.2979)" fill="#CCBACA"/>
<rect x="36.0322" y="56.2979" width="22.234" height="27.3348" transform="rotate(-90 36.0322 56.2979)" fill="#CCBACA"/>
<rect x="36.0322" y="56.2979" width="22.234" height="27.3348" transform="rotate(-90 36.0322 56.2979)" fill="#CCBACA"/>
<rect x="36.0322" y="56.2979" width="22.234" height="27.3348" transform="rotate(-90 36.0322 56.2979)" fill="#A8D2A0"/>
<rect x="8.69742" y="68" width="22.234" height="27.3348" transform="rotate(-90 8.69742 68)" fill="#CCBACA"/>
<rect x="8.69742" y="68" width="22.234" height="27.3348" transform="rotate(-90 8.69742 68)" fill="#CCBACA"/>
<rect x="8.69742" y="68" width="22.234" height="27.3348" transform="rotate(-90 8.69742 68)" fill="#CCBACA"/>
<rect x="8.69742" y="68" width="22.234" height="27.3348" transform="rotate(-90 8.69742 68)" fill="#2B468B"/>
<rect x="43.4871" y="35.2341" width="22.234" height="27.3348" transform="rotate(-90 43.4871 35.2341)" fill="#CCBACA"/>
<rect x="43.4871" y="35.2341" width="22.234" height="27.3348" transform="rotate(-90 43.4871 35.2341)" fill="#CCBACA"/>
<rect x="43.4871" y="35.2341" width="22.234" height="27.3348" transform="rotate(-90 43.4871 35.2341)" fill="#CCBACA"/>
<rect x="43.4871" y="35.2341" width="22.234" height="27.3348" transform="rotate(-90 43.4871 35.2341)" fill="#CCBACA"/>
<rect y="35.2341" width="22.234" height="27.3348" transform="rotate(-90 0 35.2341)" fill="#CCBACA"/>
<rect y="35.2341" width="22.234" height="27.3348" transform="rotate(-90 0 35.2341)" fill="#CCBACA"/>
<rect y="35.2341" width="22.234" height="27.3348" transform="rotate(-90 0 35.2341)" fill="#CCBACA"/>
<rect y="35.2341" width="22.234" height="27.3348" transform="rotate(-90 0 35.2341)" fill="#F7D58D"/>
<rect x="36.0322" y="68" width="22.234" height="27.3348" transform="rotate(-90 36.0322 68)" fill="#CCBACA"/>
<rect x="36.0322" y="68" width="22.234" height="27.3348" transform="rotate(-90 36.0322 68)" fill="#CCBACA"/>
<rect x="36.0322" y="68" width="22.234" height="27.3348" transform="rotate(-90 36.0322 68)" fill="#CCBACA"/>
<rect x="36.0322" y="68" width="22.234" height="27.3348" transform="rotate(-90 36.0322 68)" fill="#9CBAC1"/>
<rect x="8.69742" y="56.2979" width="22.234" height="27.3348" transform="rotate(-90 8.69742 56.2979)" fill="#CCBACA"/>
<rect x="8.69742" y="56.2979" width="22.234" height="27.3348" transform="rotate(-90 8.69742 56.2979)" fill="#CCBACA"/>
<rect x="8.69742" y="56.2979" width="22.234" height="27.3348" transform="rotate(-90 8.69742 56.2979)" fill="#CCBACA"/>
<rect x="8.69742" y="56.2979" width="22.234" height="27.3348" transform="rotate(-90 8.69742 56.2979)" fill="#FA9746"/>
<rect x="22.3648" y="56.2979" width="22.234" height="27.3348" transform="rotate(-90 22.3648 56.2979)" fill="#CCBACA"/>
<rect x="22.3648" y="56.2979" width="22.234" height="27.3348" transform="rotate(-90 22.3648 56.2979)" fill="#CCBACA"/>
<rect x="22.3648" y="56.2979" width="22.234" height="27.3348" transform="rotate(-90 22.3648 56.2979)" fill="#CCBACA"/>
<rect x="22.3648" y="56.2979" width="22.234" height="27.3348" transform="rotate(-90 22.3648 56.2979)" fill="#B74C42"/>
<rect x="22.3648" y="35.2341" width="22.234" height="27.3348" transform="rotate(-90 22.3648 35.2341)" fill="#CCBACA"/>
<rect x="22.3648" y="35.2341" width="22.234" height="27.3348" transform="rotate(-90 22.3648 35.2341)" fill="#CCBACA"/>
<rect x="22.3648" y="35.2341" width="22.234" height="27.3348" transform="rotate(-90 22.3648 35.2341)" fill="#CCBACA"/>
<rect x="22.3648" y="35.2341" width="22.234" height="27.3348" transform="rotate(-90 22.3648 35.2341)" fill="#52B277"/>
<rect x="22.3648" y="35.2341" width="10.5319" height="27.3348" transform="rotate(-90 22.3648 35.2341)" fill="#CCBACA"/>
<rect x="22.3648" y="35.2341" width="10.5319" height="27.3348" transform="rotate(-90 22.3648 35.2341)" fill="#CCBACA"/>
<rect x="22.3648" y="35.2341" width="10.5319" height="27.3348" transform="rotate(-90 22.3648 35.2341)" fill="#CCBACA"/>
<rect x="22.3648" y="35.2341" width="10.5319" height="27.3348" transform="rotate(-90 22.3648 35.2341)" fill="#FCECDC"/>
<path d="M130.25 9.85938C129.948 11.0156 129.594 12.224 129.188 13.4844C128.781 14.7344 128.344 15.9948 127.875 17.2656C127.406 18.526 126.922 19.776 126.422 21.0156C125.932 22.2448 125.453 23.4115 124.984 24.5156C123.88 27.1198 122.724 29.6875 121.516 32.2188L117.266 32.4531L113.609 17.125C113.359 17.9792 113.099 18.8698 112.828 19.7969C112.568 20.7135 112.297 21.6406 112.016 22.5781C111.745 23.5156 111.474 24.4427 111.203 25.3594C110.932 26.276 110.667 27.151 110.406 27.9844C110.146 28.8177 109.896 29.599 109.656 30.3281C109.427 31.0469 109.219 31.6771 109.031 32.2188L104.781 32.4531C103.75 30.1094 102.74 27.6823 101.75 25.1719C101.323 24.099 100.88 22.9583 100.422 21.75C99.974 20.5417 99.526 19.2969 99.0781 18.0156C98.6406 16.7344 98.2135 15.4375 97.7969 14.125C97.3802 12.8021 97 11.5052 96.6562 10.2344L102.062 9.125C102.135 9.60417 102.25 10.3125 102.406 11.25C102.562 12.1771 102.755 13.2448 102.984 14.4531C103.214 15.6615 103.474 16.9635 103.766 18.3594C104.068 19.7448 104.396 21.1354 104.75 22.5312C105.115 23.9167 105.505 25.2604 105.922 26.5625C106.339 27.8542 106.781 29.0156 107.25 30.0469C107.635 28.9219 108 27.7865 108.344 26.6406C108.688 25.4948 109.005 24.3698 109.297 23.2656C109.599 22.151 109.88 21.0729 110.141 20.0312C110.401 18.9792 110.635 17.9948 110.844 17.0781C111.344 14.9219 111.776 12.8542 112.141 10.875L115.5 10.4062C115.875 12.625 116.302 14.875 116.781 17.1562C116.979 18.125 117.198 19.151 117.438 20.2344C117.677 21.3177 117.932 22.4167 118.203 23.5312C118.484 24.6354 118.776 25.7448 119.078 26.8594C119.391 27.9635 119.714 29.026 120.047 30.0469C120.755 28.2865 121.396 26.5781 121.969 24.9219C122.542 23.2656 123.068 21.599 123.547 19.9219C124.026 18.2344 124.458 16.5104 124.844 14.75C125.24 12.9792 125.615 11.1042 125.969 9.125L130.25 9.85938ZM147.531 24.7031C147.531 25.9635 147.281 27.0833 146.781 28.0625C146.292 29.0312 145.635 29.8542 144.812 30.5312C144 31.1979 143.057 31.7031 141.984 32.0469C140.911 32.401 139.797 32.5781 138.641 32.5781C137.495 32.5781 136.438 32.3802 135.469 31.9844C134.51 31.5885 133.682 31.0417 132.984 30.3438C132.286 29.6354 131.74 28.8021 131.344 27.8438C130.958 26.875 130.766 25.8177 130.766 24.6719C130.766 23.5469 130.995 22.4948 131.453 21.5156C131.922 20.5365 132.542 19.6823 133.312 18.9531C134.094 18.2135 134.99 17.6354 136 17.2188C137.01 16.7917 138.068 16.5781 139.172 16.5781C140.37 16.5781 141.479 16.776 142.5 17.1719C143.521 17.5677 144.401 18.125 145.141 18.8438C145.891 19.5625 146.474 20.4219 146.891 21.4219C147.318 22.4115 147.531 23.5052 147.531 24.7031ZM143.594 24.5469C143.594 24.0781 143.562 23.5938 143.5 23.0938C143.438 22.5833 143.333 22.0885 143.188 21.6094C143.052 21.1198 142.87 20.6615 142.641 20.2344C142.422 19.7969 142.146 19.4167 141.812 19.0938C141.479 18.7604 141.089 18.5 140.641 18.3125C140.193 18.1146 139.682 18.0156 139.109 18.0156C138.234 18.0156 137.51 18.2292 136.938 18.6562C136.365 19.0729 135.911 19.6094 135.578 20.2656C135.255 20.9115 135.026 21.625 134.891 22.4062C134.766 23.1875 134.703 23.9323 134.703 24.6406C134.703 25.1094 134.729 25.599 134.781 26.1094C134.844 26.6094 134.943 27.1042 135.078 27.5938C135.214 28.0833 135.391 28.5521 135.609 29C135.828 29.4375 136.099 29.8281 136.422 30.1719C136.755 30.5052 137.141 30.7708 137.578 30.9688C138.026 31.1667 138.536 31.2656 139.109 31.2656C139.693 31.2656 140.208 31.1667 140.656 30.9688C141.104 30.7604 141.49 30.4896 141.812 30.1562C142.146 29.8125 142.427 29.4167 142.656 28.9688C142.885 28.5104 143.068 28.0365 143.203 27.5469C143.339 27.0469 143.438 26.5417 143.5 26.0312C143.562 25.5104 143.594 25.0156 143.594 24.5469ZM154.781 16.7656L154.562 20.8594C154.833 20.3594 155.151 19.8698 155.516 19.3906C155.88 18.901 156.276 18.4479 156.703 18.0312C157.141 17.6042 157.599 17.2188 158.078 16.875C158.568 16.5208 159.068 16.2292 159.578 16V21.2188C159.359 20.9792 159.109 20.8073 158.828 20.7031C158.547 20.599 158.245 20.5469 157.922 20.5469C157.443 20.5469 157.016 20.625 156.641 20.7812C156.266 20.9375 155.938 21.151 155.656 21.4219C155.375 21.6823 155.135 21.9948 154.938 22.3594C154.74 22.7135 154.573 23.0885 154.438 23.4844L153.984 31.9062L151.234 32.0938L150.328 17.0312L154.781 16.7656ZM166.312 6.96875L165.547 32.0625L162.562 32.3125L161.797 7.39062L166.312 6.96875ZM181.484 22.0156C181.484 21.6198 181.365 21.2396 181.125 20.875C180.896 20.5 180.599 20.1719 180.234 19.8906C179.87 19.6094 179.464 19.3854 179.016 19.2188C178.568 19.0521 178.135 18.9688 177.719 18.9688C176.865 18.9688 176.13 19.1562 175.516 19.5312C174.901 19.9062 174.396 20.3958 174 21C173.615 21.5938 173.328 22.2656 173.141 23.0156C172.953 23.7552 172.859 24.5 172.859 25.25C172.859 25.9271 172.927 26.625 173.062 27.3438C173.208 28.0521 173.443 28.7031 173.766 29.2969C174.099 29.8906 174.536 30.3802 175.078 30.7656C175.62 31.1406 176.297 31.3281 177.109 31.3281C177.745 31.3281 178.297 31.1875 178.766 30.9062C179.245 30.625 179.651 30.2656 179.984 29.8281C180.328 29.3802 180.609 28.8802 180.828 28.3281C181.047 27.7656 181.214 27.2083 181.328 26.6562C181.359 25.8854 181.391 25.1094 181.422 24.3281C181.464 23.5365 181.484 22.7656 181.484 22.0156ZM185.172 9.98438L184.562 32.6406L181.688 32.5469L181.562 29.7656C181.354 30.2656 181.078 30.7135 180.734 31.1094C180.401 31.4948 180.01 31.8177 179.562 32.0781C179.125 32.349 178.641 32.5521 178.109 32.6875C177.589 32.8229 177.042 32.8906 176.469 32.8906C175.354 32.8906 174.339 32.7031 173.422 32.3281C172.505 31.9531 171.719 31.4323 171.062 30.7656C170.417 30.099 169.911 29.3021 169.547 28.375C169.193 27.4479 169.016 26.4375 169.016 25.3438C169.016 24.1562 169.208 23.0677 169.594 22.0781C169.99 21.0781 170.536 20.224 171.234 19.5156C171.943 18.7969 172.792 18.25 173.781 17.875C174.771 17.4896 175.859 17.3125 177.047 17.3438C177.401 17.3542 177.76 17.3906 178.125 17.4531C178.5 17.5052 178.865 17.5885 179.219 17.7031C179.573 17.8177 179.911 17.9635 180.234 18.1406C180.568 18.3177 180.87 18.5312 181.141 18.7812L180.812 9.76562L185.172 9.98438ZM211.781 17.5L206.797 17.7656C206.776 16.7865 206.625 15.8333 206.344 14.9062C206.062 13.9792 205.641 13.1562 205.078 12.4375C204.526 11.7083 203.839 11.125 203.016 10.6875C202.203 10.2396 201.255 10.0156 200.172 10.0156C199.224 10.0156 198.38 10.1719 197.641 10.4844C196.901 10.7865 196.245 11.1979 195.672 11.7188C195.109 12.2396 194.625 12.8542 194.219 13.5625C193.823 14.2604 193.5 15.0052 193.25 15.7969C193 16.5781 192.818 17.3906 192.703 18.2344C192.589 19.0677 192.531 19.8802 192.531 20.6719C192.531 21.5052 192.578 22.3542 192.672 23.2188C192.776 24.0729 192.943 24.9062 193.172 25.7188C193.401 26.5208 193.703 27.2812 194.078 28C194.464 28.7083 194.938 29.3281 195.5 29.8594C196.073 30.3906 196.74 30.8125 197.5 31.125C198.271 31.4271 199.161 31.5781 200.172 31.5781C201.255 31.5781 202.193 31.3854 202.984 31C203.786 30.6146 204.453 30.0938 204.984 29.4375C205.516 28.7812 205.922 28.0156 206.203 27.1406C206.484 26.2656 206.651 25.3385 206.703 24.3594L211.594 24.6094C211.198 25.9115 210.62 27.0885 209.859 28.1406C209.109 29.1927 208.229 30.0885 207.219 30.8281C206.219 31.5677 205.104 32.1354 203.875 32.5312C202.656 32.9271 201.38 33.125 200.047 33.125C198.203 33.125 196.547 32.8125 195.078 32.1875C193.62 31.5729 192.375 30.7135 191.344 29.6094C190.323 28.5052 189.536 27.1927 188.984 25.6719C188.443 24.151 188.172 22.4844 188.172 20.6719C188.172 18.9323 188.458 17.3177 189.031 15.8281C189.615 14.3385 190.427 13.0521 191.469 11.9688C192.521 10.875 193.776 10.0208 195.234 9.40625C196.693 8.79167 198.297 8.48438 200.047 8.48438C201.443 8.48438 202.776 8.69271 204.047 9.10938C205.328 9.51562 206.484 10.1094 207.516 10.8906C208.557 11.6615 209.448 12.6042 210.188 13.7188C210.927 14.8333 211.458 16.0938 211.781 17.5ZM219.641 13.5625C219.641 13.9375 219.568 14.2917 219.422 14.625C219.286 14.9583 219.094 15.25 218.844 15.5C218.594 15.75 218.302 15.9479 217.969 16.0938C217.635 16.2396 217.276 16.3125 216.891 16.3125C216.505 16.3125 216.141 16.2396 215.797 16.0938C215.464 15.9479 215.172 15.75 214.922 15.5C214.672 15.25 214.474 14.9583 214.328 14.625C214.182 14.2917 214.109 13.9375 214.109 13.5625C214.109 13.1771 214.182 12.8177 214.328 12.4844C214.474 12.1406 214.672 11.8438 214.922 11.5938C215.172 11.3438 215.464 11.1458 215.797 11C216.141 10.8542 216.505 10.7812 216.891 10.7812C217.276 10.7812 217.635 10.8542 217.969 11C218.302 11.1458 218.594 11.3438 218.844 11.5938C219.094 11.8438 219.286 12.1406 219.422 12.4844C219.568 12.8177 219.641 13.1771 219.641 13.5625ZM219.109 17.8906L217.922 32.9219L214.906 32.6094L214.719 17.6562L219.109 17.8906ZM227.844 10.2031L227.656 16.6094H231.359V17.9219H227.625L227.203 32.0938L224.328 32.3594L224.031 17.9219H220.188V16.6094H224L223.906 11.2031L227.844 10.2031ZM237.891 13.5625C237.891 13.9375 237.818 14.2917 237.672 14.625C237.536 14.9583 237.344 15.25 237.094 15.5C236.844 15.75 236.552 15.9479 236.219 16.0938C235.885 16.2396 235.526 16.3125 235.141 16.3125C234.755 16.3125 234.391 16.2396 234.047 16.0938C233.714 15.9479 233.422 15.75 233.172 15.5C232.922 15.25 232.724 14.9583 232.578 14.625C232.432 14.2917 232.359 13.9375 232.359 13.5625C232.359 13.1771 232.432 12.8177 232.578 12.4844C232.724 12.1406 232.922 11.8438 233.172 11.5938C233.422 11.3438 233.714 11.1458 234.047 11C234.391 10.8542 234.755 10.7812 235.141 10.7812C235.526 10.7812 235.885 10.8542 236.219 11C236.552 11.1458 236.844 11.3438 237.094 11.5938C237.344 11.8438 237.536 12.1406 237.672 12.4844C237.818 12.8177 237.891 13.1771 237.891 13.5625ZM237.359 17.8906L236.172 32.9219L233.156 32.6094L232.969 17.6562L237.359 17.8906ZM253.172 27.9375L252.719 32.3594L239.891 31.875L248.078 18.5625H247.688C247.062 18.5625 246.427 18.6615 245.781 18.8594C245.135 19.0573 244.5 19.3177 243.875 19.6406C243.26 19.9531 242.667 20.3073 242.094 20.7031C241.521 21.0885 240.984 21.474 240.484 21.8594L239.859 17.5625L253.297 17.4062L243.812 30.625C244.542 30.6146 245.328 30.5573 246.172 30.4531C247.016 30.349 247.854 30.1927 248.688 29.9844C249.531 29.7656 250.339 29.4896 251.109 29.1562C251.891 28.8229 252.578 28.4167 253.172 27.9375ZM263.938 27.6094C263.115 27.6094 262.297 27.5052 261.484 27.2969C260.682 27.0781 259.953 26.7344 259.297 26.2656C259.307 26.6719 259.333 27.0885 259.375 27.5156C259.417 27.9427 259.484 28.3594 259.578 28.7656C259.682 29.1615 259.812 29.5365 259.969 29.8906C260.135 30.2448 260.344 30.5573 260.594 30.8281C260.854 31.0885 261.161 31.2969 261.516 31.4531C261.88 31.6094 262.312 31.6875 262.812 31.6875C263.281 31.6875 263.719 31.6042 264.125 31.4375C264.531 31.2604 264.885 31.026 265.188 30.7344C265.5 30.4427 265.755 30.099 265.953 29.7031C266.151 29.3073 266.286 28.8802 266.359 28.4219L270.203 29.2812C269.901 29.9271 269.474 30.474 268.922 30.9219C268.38 31.3698 267.776 31.7292 267.109 32C266.443 32.2812 265.745 32.4844 265.016 32.6094C264.297 32.7344 263.604 32.7969 262.938 32.7969C261.74 32.7969 260.672 32.6198 259.734 32.2656C258.797 31.9115 258.005 31.401 257.359 30.7344C256.724 30.0677 256.234 29.2604 255.891 28.3125C255.557 27.3542 255.391 26.2812 255.391 25.0938C255.391 23.9375 255.589 22.849 255.984 21.8281C256.38 20.7969 256.932 19.901 257.641 19.1406C258.349 18.3802 259.198 17.7812 260.188 17.3438C261.188 16.8958 262.286 16.6719 263.484 16.6719C264.359 16.6719 265.229 16.7812 266.094 17C266.958 17.2083 267.734 17.5417 268.422 18C269.109 18.4479 269.661 19.026 270.078 19.7344C270.505 20.4427 270.719 21.2969 270.719 22.2969C270.719 23.276 270.521 24.1042 270.125 24.7812C269.74 25.4479 269.229 25.9948 268.594 26.4219C267.958 26.8385 267.234 27.1406 266.422 27.3281C265.609 27.5156 264.781 27.6094 263.938 27.6094ZM263.266 17.8281C262.786 17.8281 262.359 17.9271 261.984 18.125C261.62 18.3125 261.292 18.5729 261 18.9062C260.719 19.2396 260.479 19.6198 260.281 20.0469C260.083 20.474 259.917 20.9219 259.781 21.3906C259.646 21.8594 259.542 22.3333 259.469 22.8125C259.396 23.2917 259.349 23.7396 259.328 24.1562C259.724 24.8333 260.25 25.3906 260.906 25.8281C261.562 26.2552 262.323 26.4688 263.188 26.4688C263.74 26.4688 264.234 26.3438 264.672 26.0938C265.109 25.8333 265.479 25.5 265.781 25.0938C266.083 24.6875 266.312 24.2344 266.469 23.7344C266.635 23.2344 266.719 22.7344 266.719 22.2344C266.719 21.7344 266.646 21.224 266.5 20.7031C266.354 20.1719 266.135 19.6979 265.844 19.2812C265.562 18.8542 265.203 18.5052 264.766 18.2344C264.339 17.9635 263.839 17.8281 263.266 17.8281ZM277.812 17.0312L277.656 19.875C277.938 19.3646 278.266 18.8906 278.641 18.4531C279.026 18.0052 279.453 17.6302 279.922 17.3281C280.401 17.0156 280.917 16.7865 281.469 16.6406C282.031 16.4948 282.625 16.4635 283.25 16.5469C284.24 16.6927 285.078 16.9948 285.766 17.4531C286.453 17.9115 287.005 18.4948 287.422 19.2031C287.849 19.9115 288.156 20.7344 288.344 21.6719C288.531 22.6094 288.625 23.6302 288.625 24.7344C288.625 25.349 288.573 25.9948 288.469 26.6719C288.365 27.349 288.224 28.026 288.047 28.7031C287.87 29.3698 287.667 30.026 287.438 30.6719C287.219 31.3177 286.995 31.9219 286.766 32.4844L282.906 32.0938C282.927 32.0833 282.995 31.9583 283.109 31.7188C283.224 31.4792 283.359 31.1562 283.516 30.75C283.672 30.3438 283.833 29.8698 284 29.3281C284.177 28.776 284.339 28.1823 284.484 27.5469C284.641 26.9115 284.766 26.2448 284.859 25.5469C284.964 24.8385 285.016 24.1302 285.016 23.4219C285.016 22.6406 284.948 21.9479 284.812 21.3438C284.677 20.7396 284.464 20.2292 284.172 19.8125C283.891 19.3958 283.526 19.0781 283.078 18.8594C282.63 18.6406 282.089 18.5312 281.453 18.5312C280.901 18.5312 280.411 18.6823 279.984 18.9844C279.557 19.276 279.182 19.6562 278.859 20.125C278.536 20.5938 278.26 21.125 278.031 21.7188C277.802 22.3021 277.609 22.8906 277.453 23.4844L277.047 31.9062L274.141 32.1562L273.531 17.375L277.812 17.0312Z" fill="black" fill-opacity="0.87"/>
<path d="M142.547 54.6719C142.547 55.8281 142.385 56.9271 142.062 57.9688C141.75 59 141.307 59.9583 140.734 60.8438C140.172 61.7292 139.5 62.5312 138.719 63.25C137.938 63.9583 137.073 64.5677 136.125 65.0781C135.188 65.5781 134.188 65.9635 133.125 66.2344C132.073 66.5052 130.99 66.6406 129.875 66.6406C129.312 66.6406 128.656 66.6354 127.906 66.625C127.167 66.6146 126.406 66.5885 125.625 66.5469C124.854 66.5052 124.104 66.4375 123.375 66.3438C122.656 66.25 122.042 66.125 121.531 65.9688V65.8125C121.531 64.5104 121.542 63.2188 121.562 61.9375C121.594 60.6562 121.625 59.3646 121.656 58.0625C121.708 55.6771 121.76 53.3073 121.812 50.9531C121.875 48.5885 121.938 46.2135 122 43.8281C123.438 43.599 124.891 43.4375 126.359 43.3438C127.839 43.2396 129.312 43.1875 130.781 43.1875C131.833 43.1875 132.854 43.3229 133.844 43.5938C134.833 43.8646 135.76 44.25 136.625 44.75C137.5 45.25 138.297 45.849 139.016 46.5469C139.745 47.2344 140.37 48.0052 140.891 48.8594C141.411 49.7135 141.818 50.6302 142.109 51.6094C142.401 52.5885 142.547 53.6094 142.547 54.6719ZM138.234 54.3125C138.234 52.75 138.057 51.375 137.703 50.1875C137.349 49 136.797 48.0052 136.047 47.2031C135.297 46.3906 134.344 45.7812 133.188 45.375C132.042 44.9583 130.672 44.75 129.078 44.75C128.63 44.75 128.177 44.7552 127.719 44.7656C127.26 44.7656 126.797 44.7812 126.328 44.8125L125.266 64.875C126.047 65.0417 126.839 65.1354 127.641 65.1562C128.443 65.1667 129.229 65.1719 130 65.1719C130.927 65.1719 131.776 65.0156 132.547 64.7031C133.318 64.3906 134.005 63.9688 134.609 63.4375C135.224 62.8958 135.755 62.2656 136.203 61.5469C136.661 60.8281 137.042 60.0677 137.344 59.2656C137.646 58.4635 137.87 57.6406 138.016 56.7969C138.161 55.9427 138.234 55.1146 138.234 54.3125ZM161.703 58.7031C161.703 59.9635 161.453 61.0833 160.953 62.0625C160.464 63.0312 159.807 63.8542 158.984 64.5312C158.172 65.1979 157.229 65.7031 156.156 66.0469C155.083 66.401 153.969 66.5781 152.812 66.5781C151.667 66.5781 150.609 66.3802 149.641 65.9844C148.682 65.5885 147.854 65.0417 147.156 64.3438C146.458 63.6354 145.911 62.8021 145.516 61.8438C145.13 60.875 144.938 59.8177 144.938 58.6719C144.938 57.5469 145.167 56.4948 145.625 55.5156C146.094 54.5365 146.714 53.6823 147.484 52.9531C148.266 52.2135 149.161 51.6354 150.172 51.2188C151.182 50.7917 152.24 50.5781 153.344 50.5781C154.542 50.5781 155.651 50.776 156.672 51.1719C157.693 51.5677 158.573 52.125 159.312 52.8438C160.062 53.5625 160.646 54.4219 161.062 55.4219C161.49 56.4115 161.703 57.5052 161.703 58.7031ZM157.766 58.5469C157.766 58.0781 157.734 57.5938 157.672 57.0938C157.609 56.5833 157.505 56.0885 157.359 55.6094C157.224 55.1198 157.042 54.6615 156.812 54.2344C156.594 53.7969 156.318 53.4167 155.984 53.0938C155.651 52.7604 155.26 52.5 154.812 52.3125C154.365 52.1146 153.854 52.0156 153.281 52.0156C152.406 52.0156 151.682 52.2292 151.109 52.6562C150.536 53.0729 150.083 53.6094 149.75 54.2656C149.427 54.9115 149.198 55.625 149.062 56.4062C148.938 57.1875 148.875 57.9323 148.875 58.6406C148.875 59.1094 148.901 59.599 148.953 60.1094C149.016 60.6094 149.115 61.1042 149.25 61.5938C149.385 62.0833 149.562 62.5521 149.781 63C150 63.4375 150.271 63.8281 150.594 64.1719C150.927 64.5052 151.312 64.7708 151.75 64.9688C152.198 65.1667 152.708 65.2656 153.281 65.2656C153.865 65.2656 154.38 65.1667 154.828 64.9688C155.276 64.7604 155.661 64.4896 155.984 64.1562C156.318 63.8125 156.599 63.4167 156.828 62.9688C157.057 62.5104 157.24 62.0365 157.375 61.5469C157.51 61.0469 157.609 60.5417 157.672 60.0312C157.734 59.5104 157.766 59.0156 157.766 58.5469ZM168.891 51.0312L168.734 53.875C169.016 53.3646 169.344 52.8906 169.719 52.4531C170.104 52.0052 170.531 51.6302 171 51.3281C171.479 51.0156 171.995 50.7865 172.547 50.6406C173.109 50.4948 173.703 50.4635 174.328 50.5469C175.318 50.6927 176.156 50.9948 176.844 51.4531C177.531 51.9115 178.083 52.4948 178.5 53.2031C178.927 53.9115 179.234 54.7344 179.422 55.6719C179.609 56.6094 179.703 57.6302 179.703 58.7344C179.703 59.349 179.651 59.9948 179.547 60.6719C179.443 61.349 179.302 62.026 179.125 62.7031C178.948 63.3698 178.745 64.026 178.516 64.6719C178.297 65.3177 178.073 65.9219 177.844 66.4844L173.984 66.0938C174.005 66.0833 174.073 65.9583 174.188 65.7188C174.302 65.4792 174.438 65.1562 174.594 64.75C174.75 64.3438 174.911 63.8698 175.078 63.3281C175.255 62.776 175.417 62.1823 175.562 61.5469C175.719 60.9115 175.844 60.2448 175.938 59.5469C176.042 58.8385 176.094 58.1302 176.094 57.4219C176.094 56.6406 176.026 55.9479 175.891 55.3438C175.755 54.7396 175.542 54.2292 175.25 53.8125C174.969 53.3958 174.604 53.0781 174.156 52.8594C173.708 52.6406 173.167 52.5312 172.531 52.5312C171.979 52.5312 171.49 52.6823 171.062 52.9844C170.635 53.276 170.26 53.6562 169.938 54.125C169.615 54.5938 169.339 55.125 169.109 55.7188C168.88 56.3021 168.688 56.8906 168.531 57.4844L168.125 65.9062L165.219 66.1562L164.609 51.375L168.891 51.0312ZM194.219 42.7656C195.635 42.7656 196.88 43.0156 197.953 43.5156C199.026 44.0052 199.953 44.6719 200.734 45.5156C201.516 46.349 202.167 47.3177 202.688 48.4219C203.219 49.5156 203.641 50.6667 203.953 51.875C204.266 53.0729 204.484 54.2917 204.609 55.5312C204.745 56.7604 204.812 57.9271 204.812 59.0312C204.812 60 204.75 60.9271 204.625 61.8125C204.5 62.6979 204.365 63.4896 204.219 64.1875C204.042 65 203.844 65.7656 203.625 66.4844L198.891 65.6406C199.193 64.9219 199.474 64.1042 199.734 63.1875C200.005 62.2708 200.245 61.3333 200.453 60.375C199.193 60.2604 197.932 60.1875 196.672 60.1562C195.422 60.125 194.177 60.1094 192.938 60.1094C191.969 60.1094 191 60.1146 190.031 60.125C189.062 60.1354 188.089 60.1719 187.109 60.2344C187.318 61.1198 187.562 62.0052 187.844 62.8906C188.125 63.776 188.448 64.6823 188.812 65.6094L183.875 66.5156C183.646 66.0365 183.438 65.4792 183.25 64.8438C183.094 64.3021 182.948 63.6458 182.812 62.875C182.688 62.0938 182.625 61.2135 182.625 60.2344C182.625 58.9531 182.677 57.6354 182.781 56.2812C182.896 54.9167 183.099 53.5885 183.391 52.2969C183.693 51.0052 184.109 49.7812 184.641 48.625C185.182 47.4688 185.88 46.4583 186.734 45.5938C187.599 44.7188 188.641 44.0312 189.859 43.5312C191.089 43.0208 192.542 42.7656 194.219 42.7656ZM186.438 53.875C186.438 54.7396 186.469 55.5781 186.531 56.3906C186.594 57.1927 186.693 57.9844 186.828 58.7656C187.87 58.8281 188.906 58.8646 189.938 58.875C190.979 58.8854 192.031 58.8906 193.094 58.8906C194.354 58.8906 195.62 58.8854 196.891 58.875C198.172 58.8542 199.458 58.7969 200.75 58.7031C200.938 57.5469 201.031 56.4583 201.031 55.4375C201.031 54.6979 200.974 53.9115 200.859 53.0781C200.755 52.2448 200.583 51.4219 200.344 50.6094C200.104 49.7865 199.792 49 199.406 48.25C199.031 47.5 198.568 46.8438 198.016 46.2812C197.464 45.7083 196.823 45.2552 196.094 44.9219C195.375 44.5781 194.557 44.4062 193.641 44.4062C192.797 44.4062 192.036 44.5417 191.359 44.8125C190.682 45.0833 190.073 45.4531 189.531 45.9219C189 46.3906 188.536 46.9375 188.141 47.5625C187.755 48.1771 187.438 48.8385 187.188 49.5469C186.938 50.2448 186.75 50.9635 186.625 51.7031C186.5 52.4427 186.438 53.1667 186.438 53.875ZM223.328 56.0156L219.297 56.4688V55.8281C219.297 55.3281 219.214 54.8229 219.047 54.3125C218.891 53.7917 218.656 53.3177 218.344 52.8906C218.042 52.4635 217.667 52.1146 217.219 51.8438C216.771 51.5729 216.26 51.4375 215.688 51.4375C215.125 51.4375 214.63 51.5625 214.203 51.8125C213.776 52.0521 213.406 52.375 213.094 52.7812C212.781 53.1771 212.521 53.6354 212.312 54.1562C212.115 54.6771 211.953 55.2135 211.828 55.7656C211.714 56.3177 211.63 56.8646 211.578 57.4062C211.526 57.9479 211.5 58.4427 211.5 58.8906C211.5 59.3073 211.516 59.7604 211.547 60.25C211.578 60.7292 211.641 61.2135 211.734 61.7031C211.828 62.1927 211.958 62.6667 212.125 63.125C212.302 63.5729 212.531 63.974 212.812 64.3281C213.094 64.6719 213.432 64.9531 213.828 65.1719C214.234 65.3802 214.714 65.4844 215.266 65.4844C215.818 65.4844 216.318 65.3542 216.766 65.0938C217.224 64.8333 217.615 64.5 217.938 64.0938C218.271 63.6771 218.536 63.2188 218.734 62.7188C218.932 62.2188 219.057 61.7344 219.109 61.2656L223.266 61.3594C223.078 62.2344 222.698 63 222.125 63.6562C221.552 64.3125 220.875 64.8646 220.094 65.3125C219.323 65.75 218.495 66.0781 217.609 66.2969C216.724 66.526 215.87 66.6406 215.047 66.6406C213.953 66.6406 212.948 66.4479 212.031 66.0625C211.115 65.6771 210.323 65.1458 209.656 64.4688C209 63.7917 208.484 62.9896 208.109 62.0625C207.745 61.125 207.562 60.1146 207.562 59.0312C207.562 57.8229 207.76 56.6927 208.156 55.6406C208.552 54.5781 209.109 53.6562 209.828 52.875C210.547 52.0938 211.401 51.4792 212.391 51.0312C213.391 50.5833 214.49 50.3594 215.688 50.3594C216.667 50.3594 217.573 50.474 218.406 50.7031C219.25 50.9323 220 51.2812 220.656 51.75C221.312 52.2188 221.865 52.8073 222.312 53.5156C222.771 54.224 223.109 55.0573 223.328 56.0156ZM231.422 44.2031L231.234 50.6094H234.938V51.9219H231.203L230.781 66.0938L227.906 66.3594L227.609 51.9219H223.766V50.6094H227.578L227.484 45.2031L231.422 44.2031ZM252.203 58.7031C252.203 59.9635 251.953 61.0833 251.453 62.0625C250.964 63.0312 250.307 63.8542 249.484 64.5312C248.672 65.1979 247.729 65.7031 246.656 66.0469C245.583 66.401 244.469 66.5781 243.312 66.5781C242.167 66.5781 241.109 66.3802 240.141 65.9844C239.182 65.5885 238.354 65.0417 237.656 64.3438C236.958 63.6354 236.411 62.8021 236.016 61.8438C235.63 60.875 235.438 59.8177 235.438 58.6719C235.438 57.5469 235.667 56.4948 236.125 55.5156C236.594 54.5365 237.214 53.6823 237.984 52.9531C238.766 52.2135 239.661 51.6354 240.672 51.2188C241.682 50.7917 242.74 50.5781 243.844 50.5781C245.042 50.5781 246.151 50.776 247.172 51.1719C248.193 51.5677 249.073 52.125 249.812 52.8438C250.562 53.5625 251.146 54.4219 251.562 55.4219C251.99 56.4115 252.203 57.5052 252.203 58.7031ZM248.266 58.5469C248.266 58.0781 248.234 57.5938 248.172 57.0938C248.109 56.5833 248.005 56.0885 247.859 55.6094C247.724 55.1198 247.542 54.6615 247.312 54.2344C247.094 53.7969 246.818 53.4167 246.484 53.0938C246.151 52.7604 245.76 52.5 245.312 52.3125C244.865 52.1146 244.354 52.0156 243.781 52.0156C242.906 52.0156 242.182 52.2292 241.609 52.6562C241.036 53.0729 240.583 53.6094 240.25 54.2656C239.927 54.9115 239.698 55.625 239.562 56.4062C239.438 57.1875 239.375 57.9323 239.375 58.6406C239.375 59.1094 239.401 59.599 239.453 60.1094C239.516 60.6094 239.615 61.1042 239.75 61.5938C239.885 62.0833 240.062 62.5521 240.281 63C240.5 63.4375 240.771 63.8281 241.094 64.1719C241.427 64.5052 241.812 64.7708 242.25 64.9688C242.698 65.1667 243.208 65.2656 243.781 65.2656C244.365 65.2656 244.88 65.1667 245.328 64.9688C245.776 64.7604 246.161 64.4896 246.484 64.1562C246.818 63.8125 247.099 63.4167 247.328 62.9688C247.557 62.5104 247.74 62.0365 247.875 61.5469C248.01 61.0469 248.109 60.5417 248.172 60.0312C248.234 59.5104 248.266 59.0156 248.266 58.5469ZM259.453 50.7656L259.234 54.8594C259.505 54.3594 259.823 53.8698 260.188 53.3906C260.552 52.901 260.948 52.4479 261.375 52.0312C261.812 51.6042 262.271 51.2188 262.75 50.875C263.24 50.5208 263.74 50.2292 264.25 50V55.2188C264.031 54.9792 263.781 54.8073 263.5 54.7031C263.219 54.599 262.917 54.5469 262.594 54.5469C262.115 54.5469 261.688 54.625 261.312 54.7812C260.938 54.9375 260.609 55.151 260.328 55.4219C260.047 55.6823 259.807 55.9948 259.609 56.3594C259.411 56.7135 259.245 57.0885 259.109 57.4844L258.656 65.9062L255.906 66.0938L255 51.0312L259.453 50.7656Z" fill="black" fill-opacity="0.87"/>
</svg>
